<?xml version="1.0" encoding="utf-8"?>
<!-- Generator: Adobe Illustrator 21.1.0, SVG Export Plug-In . SVG Version: 6.00 Build 0)  -->
<svg version="1.1" id="Layer_1" xmlns="http://www.w3.org/2000/svg" xmlns:xlink="http://www.w3.org/1999/xlink" x="0px" y="0px"
	 viewBox="0 0 288 288" style="enable-background:new 0 0 288 288;" xml:space="preserve">
<style type="text/css">
	.st0{fill:#A5D7BB;stroke:#006838;stroke-width:0.5;stroke-miterlimit:10;}
</style>
<path class="st0" d="M152.1,157.5c-3.9,3.4-8.5,3.5-9.6,3.5c-6.2-0.2-14.8-5.8-14.8-14.8c0-8.1,6.7-14.4,14.8-14.4
	c2.2,0,4.3,0.1,6.2,1c0,0,3.1,1.1,3.6,3.8l0.9,3l5.3,0.1l-9-14.6l0.4,5c-2.3-1.1-4.9-1.7-7.5-1.7c-9.7,0-17.7,8-17.7,17.7
	c0,11,10.2,17.6,17.7,17.7c1.5,0,7.7-0.1,11.8-4.5c0.7-0.7,1.1-1.4,1.4-1.9c0,0,1.5,4.3-2.6,6.6l8.8-1.1c0,0-4.7-1.6-4.6-9.2
	l-0.1-2.6c0,0,3.4-1.5,3.2-4.8c-1,1.3-1.9,1.8-2.6,2c-0.4,0.1-1.2,0.3-6-0.6c-1.2-0.2-2.2-0.4-3.2,0.1c-0.5,0.2-0.8,0.6-1.2,1.1
	c-0.9,1.3-1.2,3.7,0.8,4.7c2,1,3.3,0.5,3.3,0.5l-1.5-1.6c0,0-1.6-2.8,1.5-2.7c3.1,0.1,2.8,3.4,2.8,3.4
	C154.1,154.5,153.8,156,152.1,157.5z"/>
</svg>
